<svg width="58" height="12" viewBox="0 0 58 12" fill="none" xmlns="http://www.w3.org/2000/svg">
<g clip-path="url(#clip0_6314_4369)">
<path d="M6.29346 0.405019C6.2348 0.287685 6.15046 0.194185 6.04046 0.124518C5.93046 0.0548515 5.80946 0.0200186 5.67746 0.0200186C5.54546 0.0200186 5.42263 0.0548515 5.30896 0.124518C5.19529 0.194185 5.10913 0.287685 5.05046 0.405019L3.67546 3.25402L0.584462 3.70502C0.459795 3.71969 0.346128 3.76919 0.243462 3.85352C0.140795 3.93785 0.0711285 4.04235 0.0344618 4.16702C-0.00220486 4.29169 -0.00587153 4.41819 0.0234618 4.54652C0.0527951 4.67485 0.115128 4.78302 0.210462 4.87102L2.44346 7.09302L1.91546 10.217C1.89346 10.349 1.90813 10.4737 1.95946 10.591C2.0108 10.7084 2.0878 10.8074 2.19046 10.888C2.29313 10.9687 2.41046 11.0127 2.54246 11.02C2.67446 11.0274 2.79913 11.0017 2.91646 10.943L5.67746 9.46902L8.43846 10.943C8.55579 11.0017 8.67863 11.0274 8.80696 11.02C8.9353 11.0127 9.05446 10.9705 9.16446 10.8935C9.27446 10.8165 9.3533 10.7175 9.40096 10.5965C9.44863 10.4755 9.46146 10.349 9.43946 10.217L8.90046 7.09302L11.1445 4.87102C11.2398 4.78302 11.3021 4.67485 11.3315 4.54652C11.3608 4.41819 11.3535 4.29169 11.3095 4.16702C11.2655 4.04235 11.1958 3.93785 11.1005 3.85352C11.0051 3.76919 10.8915 3.71969 10.7595 3.70502L7.67946 3.25402L6.29346 0.405019Z" fill="#FACC15"/>
<path d="M19.6685 0.405019C19.6098 0.287685 19.5255 0.194185 19.4155 0.124518C19.3055 0.0548515 19.1845 0.0200186 19.0525 0.0200186C18.9205 0.0200186 18.7976 0.0548515 18.684 0.124518C18.5703 0.194185 18.4841 0.287685 18.4255 0.405019L17.0505 3.25402L13.9595 3.70502C13.8348 3.71969 13.7211 3.76919 13.6185 3.85352C13.5158 3.93785 13.4461 4.04235 13.4095 4.16702C13.3728 4.29169 13.3691 4.41819 13.3985 4.54652C13.4278 4.67485 13.4901 4.78302 13.5855 4.87102L15.8185 7.09302L15.2905 10.217C15.2685 10.349 15.2831 10.4737 15.3345 10.591C15.3858 10.7084 15.4628 10.8074 15.5655 10.888C15.6681 10.9687 15.7855 11.0127 15.9175 11.02C16.0495 11.0274 16.1741 11.0017 16.2915 10.943L19.0525 9.46902L21.8135 10.943C21.9308 11.0017 22.0536 11.0274 22.182 11.02C22.3103 11.0127 22.4295 10.9705 22.5395 10.8935C22.6495 10.8165 22.7283 10.7175 22.776 10.5965C22.8236 10.4755 22.8365 10.349 22.8145 10.217L22.2755 7.09302L24.5195 4.87102C24.6148 4.78302 24.6771 4.67485 24.7065 4.54652C24.7358 4.41819 24.7285 4.29169 24.6845 4.16702C24.6405 4.04235 24.5708 3.93785 24.4755 3.85352C24.3801 3.76919 24.2665 3.71969 24.1345 3.70502L21.0545 3.25402L19.6685 0.405019Z" fill="#FACC15"/>
<path d="M33.0435 0.405019C32.9848 0.287685 32.9005 0.194185 32.7905 0.124518C32.6805 0.0548515 32.5595 0.0200186 32.4275 0.0200186C32.2955 0.0200186 32.1726 0.0548515 32.059 0.124518C31.9453 0.194185 31.8591 0.287685 31.8005 0.405019L30.4255 3.25402L27.3345 3.70502C27.2098 3.71969 27.0961 3.76919 26.9935 3.85352C26.8908 3.93785 26.8211 4.04235 26.7845 4.16702C26.7478 4.29169 26.7441 4.41819 26.7735 4.54652C26.8028 4.67485 26.8651 4.78302 26.9605 4.87102L29.1935 7.09302L28.6655 10.217C28.6435 10.349 28.6581 10.4737 28.7095 10.591C28.7608 10.7084 28.8378 10.8074 28.9405 10.888C29.0431 10.9687 29.1605 11.0127 29.2925 11.02C29.4245 11.0274 29.5491 11.0017 29.6665 10.943L32.4275 9.46902L35.1885 10.943C35.3058 11.0017 35.4286 11.0274 35.557 11.02C35.6853 11.0127 35.8045 10.9705 35.9145 10.8935C36.0245 10.8165 36.1033 10.7175 36.151 10.5965C36.1986 10.4755 36.2115 10.349 36.1895 10.217L35.6505 7.09302L37.8945 4.87102C37.9898 4.78302 38.0521 4.67485 38.0815 4.54652C38.1108 4.41819 38.1035 4.29169 38.0595 4.16702C38.0155 4.04235 37.9458 3.93785 37.8505 3.85352C37.7551 3.76919 37.6415 3.71969 37.5095 3.70502L34.4295 3.25402L33.0435 0.405019Z" fill="#FACC15"/>
<path d="M46.4185 0.405019C46.3598 0.287685 46.2755 0.194185 46.1655 0.124518C46.0555 0.0548515 45.9345 0.0200186 45.8025 0.0200186C45.6705 0.0200186 45.5476 0.0548515 45.434 0.124518C45.3203 0.194185 45.2341 0.287685 45.1755 0.405019L43.8005 3.25402L40.7095 3.70502C40.5848 3.71969 40.4711 3.76919 40.3685 3.85352C40.2658 3.93785 40.1961 4.04235 40.1595 4.16702C40.1228 4.29169 40.1191 4.41819 40.1485 4.54652C40.1778 4.67485 40.2401 4.78302 40.3355 4.87102L42.5685 7.09302L42.0405 10.217C42.0185 10.349 42.0331 10.4737 42.0845 10.591C42.1358 10.7084 42.2128 10.8074 42.3155 10.888C42.4181 10.9687 42.5355 11.0127 42.6675 11.02C42.7995 11.0274 42.9241 11.0017 43.0415 10.943L45.8025 9.46902L48.5635 10.943C48.6808 11.0017 48.8036 11.0274 48.932 11.02C49.0603 11.0127 49.1795 10.9705 49.2895 10.8935C49.3995 10.8165 49.4783 10.7175 49.526 10.5965C49.5736 10.4755 49.5865 10.349 49.5645 10.217L49.0255 7.09302L51.2695 4.87102C51.3648 4.78302 51.4271 4.67485 51.4565 4.54652C51.4858 4.41819 51.4785 4.29169 51.4345 4.16702C51.3905 4.04235 51.3208 3.93785 51.2255 3.85352C51.1301 3.76919 51.0165 3.71969 50.8845 3.70502L47.8045 3.25402L46.4185 0.405019Z" fill="#FACC15"/>
<path d="M59.7935 0.405019C59.7348 0.287685 59.6505 0.194185 59.5405 0.124518C59.4305 0.0548515 59.3095 0.0200186 59.1775 0.0200186C59.0455 0.0200186 58.9226 0.0548515 58.809 0.124518C58.6953 0.194185 58.6091 0.287685 58.5505 0.405019L57.1755 3.25402L54.0845 3.70502C53.9598 3.71969 53.8461 3.76919 53.7435 3.85352C53.6408 3.93785 53.5711 4.04235 53.5345 4.16702C53.4978 4.29169 53.4941 4.41819 53.5235 4.54652C53.5528 4.67485 53.6151 4.78302 53.7105 4.87102L55.9435 7.09302L55.4155 10.217C55.3935 10.349 55.4081 10.4737 55.4595 10.591C55.5108 10.7084 55.5878 10.8074 55.6905 10.888C55.7931 10.9687 55.9105 11.0127 56.0425 11.02C56.1745 11.0274 56.2991 11.0017 56.4165 10.943L59.1775 9.46902L61.9385 10.943C62.0558 11.0017 62.1786 11.0274 62.307 11.02C62.4353 11.0127 62.5545 10.9705 62.6645 10.8935C62.7745 10.8165 62.8533 10.7175 62.901 10.5965C62.9486 10.4755 62.9615 10.349 62.9395 10.217L62.4005 7.09302L64.6445 4.87102C64.7398 4.78302 64.8021 4.67485 64.8315 4.54652C64.8608 4.41819 64.8535 4.29169 64.8095 4.16702C64.7655 4.04235 64.6958 3.93785 64.6005 3.85352C64.5051 3.76919 64.3915 3.71969 64.2595 3.70502L61.1795 3.25402L59.7935 0.405019Z" fill="#FACC15"/>
</g>
<defs>
<clipPath id="clip0_6314_4369">
<rect width="66.88" height="11" fill="white" transform="matrix(1 0 0 -1 0 11.02)"/>
</clipPath>
</defs>
</svg>
