<svg width="41" height="42" viewBox="0 0 41 42" fill="none" xmlns="http://www.w3.org/2000/svg">
<path d="M39.3102 28.3C38.8768 28.3 38.4935 28.45 38.1602 28.75C37.8268 29.05 37.6602 29.45 37.6602 29.95V36.2L27.8602 26.4C27.5268 26.1 27.1435 25.95 26.7102 25.95C26.2768 25.95 25.8935 26.1 25.5602 26.4C25.2268 26.7 25.0685 27.0833 25.0852 27.55C25.1018 28.0166 25.2602 28.4 25.5602 28.7L35.3602 38.5H29.1102C28.6768 38.5 28.2935 38.6583 27.9602 38.975C27.6268 39.2916 27.4602 39.6916 27.4602 40.175C27.4602 40.6583 27.6102 41.0583 27.9102 41.375C28.2102 41.6916 28.6102 41.85 29.1102 41.85H39.3102C39.5768 41.85 39.7935 41.7833 39.9602 41.65C40.0602 41.65 40.1518 41.6 40.2352 41.5C40.3185 41.4 40.3602 41.3 40.3602 41.2C40.3602 41.1 40.4018 41.0083 40.4852 40.925C40.5685 40.8416 40.6602 40.8 40.7602 40.8C40.7602 40.7333 40.7935 40.6333 40.8602 40.5C40.9268 40.3666 40.9602 40.25 40.9602 40.15V30.15C40.9602 29.55 40.8018 29.0916 40.4852 28.775C40.1685 28.4583 39.7768 28.3 39.3102 28.3ZM13.2602 26.2L3.46016 36V29.75C3.46016 29.3166 3.31016 28.9333 3.01016 28.6C2.71016 28.2666 2.30182 28.1 1.78516 28.1C1.26849 28.1 0.86849 28.2416 0.585156 28.525C0.301823 28.8083 0.160156 29.2166 0.160156 29.75V39.75C0.160156 40.0166 0.226823 40.2333 0.360156 40.4C0.360156 40.5 0.401823 40.5916 0.485156 40.675C0.56849 40.7583 0.660156 40.8 0.760156 40.8C0.860156 40.8 0.960156 40.8416 1.06016 40.925C1.16016 41.0083 1.21016 41.1 1.21016 41.2C1.27682 41.2 1.37682 41.2333 1.51016 41.3C1.64349 41.3666 1.74349 41.4 1.81016 41.4H11.8102C12.2435 41.4 12.6268 41.25 12.9602 40.95C13.2935 40.65 13.4602 40.2416 13.4602 39.725C13.4602 39.2083 13.3185 38.8083 13.0352 38.525C12.7518 38.2416 12.3435 38.1 11.8102 38.1H5.56016L15.3602 28.3C15.6602 27.9666 15.8102 27.575 15.8102 27.125C15.8102 26.675 15.6602 26.3 15.3602 26C15.0602 25.7 14.7185 25.5833 14.3352 25.65C13.9518 25.7166 13.5935 25.9 13.2602 26.2ZM40.7602 1.59998C40.7602 1.49997 40.7185 1.40831 40.6352 1.32497C40.5518 1.24164 40.4602 1.19997 40.3602 1.19997C40.2602 1.19997 40.1685 1.15831 40.0852 1.07497C40.0018 0.991642 39.9602 0.899975 39.9602 0.799976C39.8602 0.799976 39.7435 0.766644 39.6102 0.699974C39.4768 0.633308 39.3768 0.599976 39.3102 0.599976H29.3102C28.8768 0.599976 28.4935 0.749973 28.1602 1.04998C27.8268 1.34998 27.6602 1.75831 27.6602 2.27497C27.6602 2.79164 27.8018 3.19164 28.0852 3.47498C28.3685 3.75831 28.7768 3.89997 29.3102 3.89997H35.5602L25.7602 13.7C25.4602 14.0333 25.3102 14.4166 25.3102 14.85C25.3102 15.2833 25.4602 15.6666 25.7602 16C25.8602 16.1 26.0102 16.1916 26.2102 16.275C26.4102 16.3583 26.6102 16.4 26.8102 16.4C27.0102 16.4 27.2102 16.3583 27.4102 16.275C27.6102 16.1916 27.7602 16.1 27.8602 16L37.6602 6.19997V12.45C37.6602 12.8833 37.8102 13.2666 38.1102 13.6C38.4102 13.9333 38.8185 14.1 39.3352 14.1C39.8518 14.1 40.2518 13.9583 40.5352 13.675C40.8185 13.3916 40.9602 12.9833 40.9602 12.45V2.24997C40.9602 2.18331 40.9268 2.08331 40.8602 1.94997C40.7935 1.81664 40.7602 1.69997 40.7602 1.59998ZM5.56016 3.89997H11.8102C12.2435 3.89997 12.6268 3.74997 12.9602 3.44997C13.2935 3.14997 13.4602 2.74997 13.4602 2.24997C13.4602 1.74997 13.3018 1.38331 12.9852 1.14997C12.6685 0.916641 12.2768 0.799976 11.8102 0.799976H1.81016C1.54349 0.799976 1.34349 0.866642 1.21016 0.999973C1.07682 0.999973 0.96849 1.04164 0.885156 1.12497C0.801823 1.20831 0.760156 1.29164 0.760156 1.37497C0.760156 1.45831 0.69349 1.49997 0.560156 1.49997C0.426823 1.49997 0.360156 1.54164 0.360156 1.62497C0.360156 1.70831 0.326823 1.81664 0.260156 1.94997C0.19349 2.08331 0.160156 2.18331 0.160156 2.24997V12.25C0.160156 12.6833 0.310156 13.0666 0.610156 13.4C0.910156 13.7333 1.31849 13.9 1.83516 13.9C2.35182 13.9 2.75182 13.7583 3.03516 13.475C3.31849 13.1916 3.46016 12.7833 3.46016 12.25V5.99997L13.2602 15.8C13.3602 16 13.5102 16.15 13.7102 16.25C13.9102 16.35 14.1102 16.4 14.3102 16.4C14.5102 16.4 14.7102 16.3583 14.9102 16.275C15.1102 16.1916 15.2602 16.1 15.3602 16C15.6602 15.6666 15.8102 15.2833 15.8102 14.85C15.8102 14.4166 15.6602 14.0333 15.3602 13.7L5.56016 3.89997Z" fill="black" fill-opacity="0.7"/>
</svg>
